<?xml version="1.0" encoding="utf-8"?>
<!-- Generator: Adobe Illustrator 15.1.0, SVG Export Plug-In . SVG Version: 6.00 Build 0)  -->
<!DOCTYPE svg PUBLIC "-//W3C//DTD SVG 1.1//EN" "http://www.w3.org/Graphics/SVG/1.1/DTD/svg11.dtd" [
	<!ENTITY ns_extend "http://ns.adobe.com/Extensibility/1.0/">
	<!ENTITY ns_ai "http://ns.adobe.com/AdobeIllustrator/10.0/">
	<!ENTITY ns_graphs "http://ns.adobe.com/Graphs/1.0/">
	<!ENTITY ns_vars "http://ns.adobe.com/Variables/1.0/">
	<!ENTITY ns_imrep "http://ns.adobe.com/ImageReplacement/1.0/">
	<!ENTITY ns_sfw "http://ns.adobe.com/SaveForWeb/1.0/">
	<!ENTITY ns_custom "http://ns.adobe.com/GenericCustomNamespace/1.0/">
	<!ENTITY ns_adobe_xpath "http://ns.adobe.com/XPath/1.0/">
]>
<svg version="1.1" xmlns:x="&ns_extend;" xmlns:i="&ns_ai;" xmlns:graph="&ns_graphs;"
	 xmlns="http://www.w3.org/2000/svg" xmlns:xlink="http://www.w3.org/1999/xlink" x="0px" y="0px" width="432.935px"
	 height="141.728px" viewBox="0 0 432.935 141.728" enable-background="new 0 0 432.935 141.728" xml:space="preserve">
<metadata>
	<sfw  xmlns="&ns_sfw;">
		<slices></slices>
		<sliceSourceBounds  x="-17365.15" y="223.301" width="35571.305" height="138.498" bottomLeftOrigin="true"></sliceSourceBounds>
	</sfw>
</metadata>
<g id="Ebene_1">
</g>
<g id="Ebene_2">
	<g>
		<g>
			<path d="M48.262,7.164V3.725h13.244v3.439h-4.845v15.164h-3.555V7.164H48.262z"/>
			<path d="M72.079,3.725c0.725,0,1.377,0.135,1.958,0.404c0.581,0.27,1.079,0.638,1.494,1.107c0.415,0.469,0.732,1.012,0.951,1.628
				c0.219,0.617,0.328,1.281,0.328,1.993c0,1.094-0.2,2.041-0.6,2.84c-0.4,0.799-1.053,1.407-1.958,1.824v0.052
				c0.438,0.139,0.8,0.352,1.086,0.638s0.521,0.625,0.702,1.016c0.181,0.391,0.313,0.821,0.396,1.29
				c0.083,0.469,0.14,0.938,0.17,1.407c0.015,0.295,0.03,0.643,0.045,1.042c0.015,0.399,0.041,0.808,0.079,1.224
				c0.038,0.417,0.098,0.812,0.181,1.186c0.083,0.374,0.207,0.69,0.374,0.951h-3.555c-0.196-0.59-0.317-1.294-0.362-2.11
				c-0.045-0.816-0.113-1.598-0.204-2.345c-0.121-0.972-0.377-1.685-0.77-2.136c-0.393-0.452-1.034-0.677-1.925-0.677h-3.554v7.269
				h-3.555V3.725H72.079z M70.812,12.14c0.815,0,1.426-0.208,1.834-0.625c0.407-0.417,0.611-1.095,0.611-2.033
				c0-0.903-0.204-1.559-0.611-1.967c-0.408-0.408-1.019-0.612-1.834-0.612h-3.894v5.237H70.812z"/>
			<path d="M79.55,9.235c0.362-1.189,0.883-2.228,1.562-3.113s1.513-1.581,2.502-2.084c0.988-0.503,2.102-0.755,3.339-0.755
				c1.252,0,2.369,0.252,3.351,0.755c0.981,0.504,1.811,1.199,2.49,2.084s1.2,1.924,1.562,3.113c0.362,1.19,0.543,2.48,0.543,3.869
				c0,1.355-0.181,2.619-0.543,3.791c-0.362,1.173-0.883,2.193-1.562,3.062c-0.679,0.869-1.509,1.55-2.49,2.045
				c-0.981,0.495-2.098,0.743-3.351,0.743c-1.238,0-2.351-0.248-3.339-0.743c-0.989-0.495-1.823-1.177-2.502-2.045
				c-0.679-0.868-1.2-1.889-1.562-3.062c-0.362-1.172-0.543-2.436-0.543-3.791C79.007,11.715,79.188,10.425,79.55,9.235z
				 M82.799,15.384c0.159,0.738,0.411,1.403,0.759,1.993c0.347,0.59,0.8,1.064,1.358,1.42c0.558,0.356,1.237,0.534,2.038,0.534
				c0.8,0,1.479-0.178,2.038-0.534c0.558-0.356,1.011-0.83,1.358-1.42c0.347-0.59,0.6-1.255,0.758-1.993s0.238-1.499,0.238-2.28
				c0-0.816-0.079-1.606-0.238-2.371s-0.412-1.446-0.758-2.045c-0.348-0.599-0.8-1.077-1.358-1.433
				c-0.559-0.356-1.238-0.534-2.038-0.534c-0.8,0-1.479,0.178-2.038,0.534c-0.559,0.356-1.012,0.834-1.358,1.433
				c-0.348,0.599-0.6,1.281-0.759,2.045c-0.158,0.764-0.237,1.555-0.237,2.371C82.562,13.886,82.641,14.646,82.799,15.384z"/>
			<path d="M104.612,3.725c1.011,0,1.872,0.169,2.581,0.508c0.709,0.339,1.287,0.786,1.732,1.342c0.445,0.556,0.77,1.19,0.974,1.902
				s0.306,1.45,0.306,2.214c0,0.747-0.102,1.481-0.306,2.202c-0.204,0.721-0.528,1.359-0.974,1.915
				c-0.445,0.556-1.022,1.003-1.732,1.342c-0.709,0.339-1.57,0.508-2.581,0.508h-3.735v6.67h-3.555V3.725H104.612z M103.639,12.479
				c0.407,0,0.8-0.035,1.177-0.104c0.377-0.069,0.709-0.204,0.996-0.404c0.287-0.199,0.517-0.482,0.69-0.847
				c0.173-0.365,0.26-0.842,0.26-1.433c0-0.59-0.087-1.068-0.26-1.433c-0.174-0.365-0.404-0.646-0.69-0.847
				c-0.287-0.199-0.619-0.334-0.996-0.404c-0.377-0.069-0.77-0.104-1.177-0.104h-2.762v5.576H103.639z"/>
			<path d="M115.978,3.725v7.139h6.543V3.725h3.554v18.603h-3.554v-8.025h-6.543v8.025h-3.555V3.725H115.978z"/>
			<path d="M127.456,3.725h3.985l3.781,7.347l3.758-7.347h3.962l-6,11.464v7.139h-3.555v-7.243L127.456,3.725z"/>
			<path d="M162.684,3.725v3.439h-8.535v3.986h7.833v3.179h-7.833v4.56h8.716v3.439h-12.271V3.725H162.684z"/>
			<path d="M177.15,20.908c-1.223,1.225-2.913,1.837-5.071,1.837c-2.189,0-3.883-0.608-5.083-1.824c-1.2-1.216-1.8-3.092-1.8-5.628
				V3.725h3.555v11.568c0,0.504,0.038,0.999,0.113,1.485c0.075,0.487,0.233,0.917,0.475,1.29c0.241,0.374,0.578,0.677,1.008,0.912
				s1.007,0.352,1.732,0.352c1.268,0,2.143-0.326,2.626-0.977s0.725-1.672,0.725-3.062V3.725h3.555v11.568
				C178.984,17.812,178.373,19.683,177.15,20.908z"/>
			<path d="M190.757,3.725c0.725,0,1.377,0.135,1.958,0.404c0.581,0.27,1.079,0.638,1.494,1.107
				c0.415,0.469,0.732,1.012,0.951,1.628c0.219,0.617,0.328,1.281,0.328,1.993c0,1.094-0.2,2.041-0.6,2.84
				c-0.4,0.799-1.053,1.407-1.958,1.824v0.052c0.438,0.139,0.8,0.352,1.086,0.638s0.521,0.625,0.702,1.016
				c0.181,0.391,0.313,0.821,0.396,1.29c0.083,0.469,0.14,0.938,0.17,1.407c0.015,0.295,0.03,0.643,0.045,1.042
				c0.015,0.399,0.041,0.808,0.079,1.224c0.038,0.417,0.098,0.812,0.181,1.186c0.083,0.374,0.207,0.69,0.374,0.951h-3.555
				c-0.196-0.59-0.317-1.294-0.362-2.11c-0.045-0.816-0.113-1.598-0.204-2.345c-0.121-0.972-0.377-1.685-0.77-2.136
				c-0.393-0.452-1.034-0.677-1.925-0.677h-3.554v7.269h-3.555V3.725H190.757z M189.489,12.14c0.815,0,1.426-0.208,1.834-0.625
				c0.407-0.417,0.611-1.095,0.611-2.033c0-0.903-0.204-1.559-0.611-1.967c-0.408-0.408-1.019-0.612-1.834-0.612h-3.894v5.237
				H189.489z"/>
			<path d="M198.228,9.235c0.362-1.189,0.883-2.228,1.562-3.113s1.513-1.581,2.502-2.084c0.988-0.503,2.102-0.755,3.339-0.755
				c1.252,0,2.369,0.252,3.351,0.755c0.981,0.504,1.811,1.199,2.49,2.084s1.2,1.924,1.562,3.113c0.362,1.19,0.543,2.48,0.543,3.869
				c0,1.355-0.181,2.619-0.543,3.791c-0.362,1.173-0.883,2.193-1.562,3.062c-0.679,0.869-1.509,1.55-2.49,2.045
				c-0.981,0.495-2.098,0.743-3.351,0.743c-1.238,0-2.351-0.248-3.339-0.743c-0.989-0.495-1.823-1.177-2.502-2.045
				c-0.679-0.868-1.2-1.889-1.562-3.062c-0.362-1.172-0.543-2.436-0.543-3.791C197.685,11.715,197.866,10.425,198.228,9.235z
				 M201.477,15.384c0.159,0.738,0.411,1.403,0.759,1.993c0.347,0.59,0.8,1.064,1.358,1.42c0.558,0.356,1.237,0.534,2.038,0.534
				c0.8,0,1.479-0.178,2.038-0.534c0.558-0.356,1.011-0.83,1.358-1.42c0.347-0.59,0.6-1.255,0.758-1.993s0.238-1.499,0.238-2.28
				c0-0.816-0.079-1.606-0.238-2.371s-0.412-1.446-0.758-2.045c-0.348-0.599-0.8-1.077-1.358-1.433
				c-0.559-0.356-1.238-0.534-2.038-0.534c-0.8,0-1.479,0.178-2.038,0.534c-0.559,0.356-1.012,0.834-1.358,1.433
				c-0.348,0.599-0.6,1.281-0.759,2.045c-0.158,0.764-0.237,1.555-0.237,2.371C201.239,13.886,201.318,14.646,201.477,15.384z"/>
			<path d="M223.29,3.725c1.011,0,1.872,0.169,2.581,0.508c0.709,0.339,1.287,0.786,1.732,1.342c0.445,0.556,0.77,1.19,0.974,1.902
				s0.306,1.45,0.306,2.214c0,0.747-0.102,1.481-0.306,2.202c-0.204,0.721-0.528,1.359-0.974,1.915
				c-0.445,0.556-1.022,1.003-1.732,1.342c-0.709,0.339-1.57,0.508-2.581,0.508h-3.735v6.67H216V3.725H223.29z M222.317,12.479
				c0.407,0,0.8-0.035,1.177-0.104c0.377-0.069,0.709-0.204,0.996-0.404c0.287-0.199,0.517-0.482,0.69-0.847
				c0.173-0.365,0.26-0.842,0.26-1.433c0-0.59-0.087-1.068-0.26-1.433c-0.174-0.365-0.404-0.646-0.69-0.847
				c-0.287-0.199-0.619-0.334-0.996-0.404c-0.377-0.069-0.77-0.104-1.177-0.104h-2.762v5.576H222.317z"/>
			<path d="M243.19,3.725v3.439h-8.535v3.986h7.833v3.179h-7.833v4.56h8.716v3.439h-12.271V3.725H243.19z"/>
			<path d="M253.832,3.725l6.044,18.603h-3.689l-1.223-4.143h-6.045l-1.268,4.143h-3.577l6.113-18.603H253.832z M254.035,15.137
				l-2.038-6.827h-0.045l-2.105,6.827H254.035z"/>
			<path d="M264.812,3.725l6.747,12.48h0.045V3.725h3.328v18.603h-3.555l-6.724-12.454h-0.045v12.454h-3.328V3.725H264.812z"/>
			<path d="M291.641,3.725c1.011,0,1.871,0.169,2.581,0.508c0.709,0.339,1.286,0.786,1.731,1.342c0.445,0.556,0.77,1.19,0.974,1.902
				s0.306,1.45,0.306,2.214c0,0.747-0.102,1.481-0.306,2.202c-0.204,0.721-0.528,1.359-0.974,1.915
				c-0.445,0.556-1.022,1.003-1.731,1.342c-0.71,0.339-1.57,0.508-2.581,0.508h-3.736v6.67h-3.554V3.725H291.641z M290.667,12.479
				c0.407,0,0.8-0.035,1.177-0.104c0.377-0.069,0.71-0.204,0.996-0.404c0.287-0.199,0.518-0.482,0.69-0.847
				c0.174-0.365,0.261-0.842,0.261-1.433c0-0.59-0.087-1.068-0.261-1.433c-0.173-0.365-0.403-0.646-0.69-0.847
				c-0.286-0.199-0.619-0.334-0.996-0.404c-0.377-0.069-0.77-0.104-1.177-0.104h-2.763v5.576H290.667z"/>
			<path d="M311.541,3.725v3.439h-8.536v3.986h7.834v3.179h-7.834v4.56h8.717v3.439h-12.271V3.725H311.541z"/>
			<path d="M317.652,3.725l6.747,12.48h0.045V3.725h3.328v18.603h-3.555l-6.724-12.454h-0.045v12.454h-3.328V3.725H317.652z"/>
			<path d="M329.629,7.164V3.725h13.245v3.439h-4.846v15.164h-3.554V7.164H329.629z"/>
			<path d="M350.707,3.725l6.045,18.603h-3.69l-1.223-4.143h-6.045l-1.268,4.143h-3.577l6.112-18.603H350.707z M350.911,15.137
				l-2.038-6.827h-0.045l-2.105,6.827H350.911z"/>
			<path d="M354.805,7.164V3.725h13.245v3.439h-4.846v15.164h-3.554V7.164H354.805z"/>
			<path d="M373.46,3.725v7.139h6.543V3.725h3.555v18.603h-3.555v-8.025h-6.543v8.025h-3.554V3.725H373.46z"/>
			<path d="M390.236,3.725v15.164h7.879v3.439h-11.433V3.725H390.236z"/>
			<path d="M399.948,9.235c0.362-1.189,0.884-2.228,1.562-3.113c0.68-0.886,1.513-1.581,2.502-2.084
				c0.988-0.503,2.102-0.755,3.339-0.755c1.253,0,2.37,0.252,3.351,0.755c0.981,0.504,1.812,1.199,2.491,2.084
				c0.679,0.886,1.199,1.924,1.562,3.113c0.362,1.19,0.544,2.48,0.544,3.869c0,1.355-0.182,2.619-0.544,3.791
				c-0.362,1.173-0.883,2.193-1.562,3.062c-0.68,0.869-1.51,1.55-2.491,2.045c-0.98,0.495-2.098,0.743-3.351,0.743
				c-1.237,0-2.351-0.248-3.339-0.743c-0.989-0.495-1.822-1.177-2.502-2.045c-0.679-0.868-1.2-1.889-1.562-3.062
				c-0.362-1.172-0.543-2.436-0.543-3.791C399.405,11.715,399.586,10.425,399.948,9.235z M403.197,15.384
				c0.158,0.738,0.411,1.403,0.759,1.993c0.347,0.59,0.8,1.064,1.358,1.42c0.558,0.356,1.237,0.534,2.037,0.534
				s1.479-0.178,2.038-0.534c0.558-0.356,1.011-0.83,1.358-1.42c0.347-0.59,0.6-1.255,0.758-1.993
				c0.159-0.738,0.238-1.499,0.238-2.28c0-0.816-0.079-1.606-0.238-2.371c-0.158-0.764-0.411-1.446-0.758-2.045
				c-0.348-0.599-0.801-1.077-1.358-1.433c-0.559-0.356-1.238-0.534-2.038-0.534s-1.479,0.178-2.037,0.534
				c-0.559,0.356-1.012,0.834-1.358,1.433c-0.348,0.599-0.601,1.281-0.759,2.045s-0.237,1.555-0.237,2.371
				C402.96,13.886,403.039,14.646,403.197,15.384z"/>
			<path d="M421.253,3.725L428,16.205h0.045V3.725h3.328v18.603h-3.555l-6.724-12.454h-0.045v12.454h-3.328V3.725H421.253z"/>
		</g>
		<path d="M275.528,36.772L275.528,36.772v12.309v40.307v12.307v40.034h12.309v-40.034H419.41h12.311V89.387V49.081V36.773v-0.001
			H275.528z M419.41,89.387H287.837V49.081H419.41V89.387z"/>
		<path d="M91.223,36.772L91.223,36.772v12.309v16.546v12.307v11.454v12.307h12.31H252.83V89.387H103.533V77.933H240.52h12.31
			V65.626V49.081V36.773v-0.001H91.223z M240.52,65.626H103.533V49.081H240.52V65.626z"/>
		<polygon points="71.053,49.083 71.053,36.772 37.533,36.772 37.533,3.23 25.224,3.23 25.224,36.772 0,36.772 0,49.083 
			25.224,49.083 25.224,89.385 25.224,101.694 37.533,101.694 71.051,101.694 71.051,89.385 37.533,89.385 37.533,49.083 		"/>
	</g>
</g>
</svg>
